<svg width="158" height="230" viewBox="0 0 158 230" fill="none" xmlns="http://www.w3.org/2000/svg">
<g clip-path="url(#clip0_1682_3584)">
<path d="M46.0101 31.069C46.0101 28.9047 47.2704 27.039 49.0927 26.1668C47.6732 25.2556 45.9886 24.7231 44.1791 24.7231C39.1363 24.7231 35.0457 28.831 35.0457 33.9C35.0457 38.9688 39.1342 43.0767 44.1791 43.0767C48.412 43.0767 51.9706 40.183 53.0068 36.259C52.5027 36.4149 51.9684 36.4993 51.4148 36.4993C48.4293 36.4971 46.0101 34.0688 46.0101 31.069Z" fill="#493DCC"/>
<path d="M157.346 160.044L144.41 147.049V146.673L157.346 133.675L144.41 120.68V114.9C144.41 110.439 140.527 106.812 135.751 106.812H105.895C104.441 106.812 103.071 107.15 101.867 107.743C100.606 108.364 99.5293 109.264 98.7324 110.359C98.4328 110.77 98.1723 111.21 97.9569 111.671C97.4937 112.66 97.2351 113.753 97.2351 114.9V122.407C97.2351 126.867 101.119 130.494 105.895 130.494H116.401V169.194V173.937H83.9636V136.602V125.732V103.182C83.9636 101.925 83.6965 100.73 83.2204 99.648L87.6493 99.2216L112.756 96.8041L145.578 93.6442C148.178 93.3844 150.481 92.2915 152.068 90.7418C153.477 89.3675 154.328 87.6295 154.328 85.7898V81.8983C154.197 81.8204 154.078 81.7165 153.977 81.5889L138.901 62.4171L132.143 70.7174L123.274 81.6062C123.029 81.9092 122.66 82.0845 122.271 82.0845C121.881 82.0845 121.512 81.9092 121.267 81.6062L105.621 62.3956L89.9758 81.6062C89.7302 81.9092 89.3618 82.0845 88.9719 82.0845C88.5821 82.0845 88.2137 81.9092 87.9681 81.6062L71.3189 61.164C70.8643 60.6078 70.9462 59.7854 71.5019 59.3287C72.0555 58.872 72.8742 58.9542 73.3287 59.5126L88.9741 78.7232L104.62 59.5126C104.865 59.2096 105.236 59.0343 105.623 59.0343C106.013 59.0343 106.382 59.2096 106.627 59.5126L122.272 78.7232L130.301 68.8669L137.918 59.5148C138.168 59.2096 138.539 59.0343 138.933 59.0365C139.325 59.0408 139.695 59.2226 139.938 59.5321L154.331 77.8316V55.0347V48.2885C154.331 47.7884 154.268 47.2971 154.147 46.8189C154.314 46.083 154.406 45.3169 154.406 44.5312C154.406 38.8433 149.8 34.2181 144.141 34.2181C140.324 34.2181 136.99 36.324 135.221 39.4385L97.3839 35.7938L90.0145 35.0839L60.8649 32.2768C60.0485 23.8445 52.9549 17.2324 44.3535 17.2324C36.8464 17.2324 30.4896 22.2688 28.4496 29.1535L27.463 29.0584C27.1916 29.0303 26.918 29.0172 26.6509 29.0172C24.2469 29.0172 22.1121 30.0972 20.6042 31.8547C19.1782 33.5168 18.3101 35.7829 18.3101 38.3173L18.3187 69.9881L17.9934 70.3148L0 88.3935L18.1852 106.665L0.44375 124.49L0 124.936L18.3295 143.353L0.497603 161.769L18.3467 179.702L18.3639 220.636C18.3639 225.452 22.2478 229.369 27.0236 229.369C27.0236 229.369 42.4924 229.337 61.873 229.274L61.7783 229.369H63.0966L62.9996 229.272C76.3617 229.228 91.447 229.172 104.559 229.101C122.895 229.001 137.367 228.879 137.84 228.728C141.739 227.504 144.413 224.649 144.413 221.241V199.408L145.445 198.371L157.349 186.412L144.413 173.417V173.041L157.346 160.044ZM144.182 40.499C146.168 40.499 147.78 42.118 147.78 44.1135C147.78 46.109 146.168 47.7279 144.182 47.7279C142.196 47.7279 140.585 46.109 140.585 44.1135C140.583 42.118 142.194 40.499 144.182 40.499ZM56.6902 35.9907C55.6971 41.9318 50.5444 46.4747 44.3535 46.4747C37.4538 46.4747 31.8401 40.8345 31.8401 33.9042C31.8401 33.8025 31.8445 33.7008 31.8488 33.6012C31.8833 32.1836 32.1482 30.8244 32.6136 29.5583C34.3778 24.7622 38.9747 21.3339 44.3535 21.3339C50.566 21.3339 55.7338 25.9071 56.701 31.8785C56.8087 32.5386 56.8669 33.216 56.8669 33.9042C56.8647 34.6141 56.8021 35.3111 56.6902 35.9907Z" fill="#493DCC"/>
<path d="M151.644 3.38718L136.992 14.3777C134.034 10.4775 126.13 7.6877 116.842 7.6877C114.147 7.6877 111.571 7.92362 109.195 8.35216C109.214 8.13356 109.225 7.91279 109.225 7.6877C109.225 5.87183 108.598 4.20529 107.551 2.89154C106.149 1.12978 103.993 0 101.573 0C98.0751 0 95.1261 2.36129 94.2149 5.58397L86.1995 11.5965H94.984C94.984 11.5965 96.2333 13.2911 97.0799 13.9102C98.3422 14.8322 99.8954 15.3776 101.576 15.3776C102.149 15.3776 102.707 15.3127 103.243 15.1915C103.43 19.8448 104.686 25.0413 108.521 27.0672C109.638 27.658 110.935 27.9113 112.307 27.9935V38.1767C112.307 38.4926 112.562 38.748 112.876 38.748C113.191 38.748 113.445 38.4926 113.445 38.1767V28.026C114.119 28.026 114.804 27.9957 115.489 27.9523V38.1745C115.489 38.4905 115.743 38.7459 116.058 38.7459C116.372 38.7459 116.627 38.4905 116.627 38.1745V27.8745C116.7 27.8679 116.773 27.8636 116.846 27.8593C125.941 27.1819 132.089 24.1388 136.102 20.1066C137.685 18.5158 137.903 18.3016 138.105 16.6459C138.107 16.635 138.107 16.6264 138.11 16.6156H156.902L151.644 3.38718ZM98.5792 7.66391C97.7283 7.66391 97.0369 6.96915 97.0369 6.11424C97.0369 5.25932 97.7283 4.56458 98.5792 4.56458C99.4301 4.56458 100.122 5.25932 100.122 6.11424C100.122 6.96915 99.4301 7.66391 98.5792 7.66391Z" fill="#493DCC"/>
</g>
<defs>
<clipPath id="clip0_1682_3584">
<rect width="157.519" height="229.369" fill="white"/>
</clipPath>
</defs>
</svg>
