<svg width="309" height="60" viewBox="0 0 309 60" fill="none" xmlns="http://www.w3.org/2000/svg">
<path d="M103.956 0.612902C104.791 1.01662 105.545 1.54953 106.21 2.21163C106.875 2.87372 107.41 3.62464 107.816 4.4563C108.221 5.292 108.424 6.13981 108.424 7.0078V36.4752C108.424 37.3392 108.221 38.191 107.816 39.0267C107.41 39.8624 106.875 40.6133 106.21 41.2714C105.545 41.9375 104.791 42.4704 103.956 42.8701C103.117 43.2738 102.293 43.4757 101.483 43.4757H61.297C60.4861 43.4757 59.663 43.2738 58.8237 42.8701C57.9844 42.4664 57.2343 41.9335 56.5693 41.2714C55.9043 40.6093 55.3651 39.8624 54.9637 39.0267C54.5582 38.195 54.3555 37.3432 54.3555 36.4752V7.0078C54.3555 6.14384 54.5582 5.292 54.9637 4.4563C55.3691 3.62464 55.9043 2.87372 56.5693 2.21163C57.2343 1.54953 57.9844 1.01662 58.8237 0.612902C59.663 0.209183 60.4861 0.00732422 61.297 0.00732422H101.483C102.289 0.00732422 103.112 0.209183 103.956 0.612902ZM66.8519 11.6748V31.8082H95.9277V11.6748H66.8519Z" fill="#252525"/>
<path d="M113.979 16.4265H126.475V31.8082H155.377V11.6748H113.979V0.00732422H160.932C161.743 0.00732422 162.566 0.209183 163.405 0.612902C164.244 1.01662 164.994 1.54953 165.663 2.21163C166.328 2.87372 166.864 3.62464 167.269 4.4563C167.671 5.292 167.877 6.13981 167.877 7.0078V36.4752C167.877 37.3392 167.675 38.191 167.269 39.0267C166.864 39.8624 166.328 40.6133 165.663 41.2714C164.999 41.9375 164.244 42.4704 163.405 42.8701C162.566 43.2738 161.743 43.4757 160.932 43.4757H113.979V16.4265V16.4265Z" fill="#252525"/>
<path d="M186.017 48.3325H173.431V60H186.017V48.3325Z" fill="#252525"/>
<path d="M186.017 0H173.431V43.5774H186.017V0Z" fill="#252525"/>
<path d="M262.911 27.0565C262.1 27.0565 261.277 26.8546 260.437 26.4509C259.598 26.0472 258.848 25.5143 258.183 24.8522C257.518 24.1901 256.979 23.4432 256.577 22.6075C256.172 21.7718 255.969 20.924 255.969 20.056V7.0078C255.969 6.14384 256.172 5.292 256.577 4.4563C256.979 3.62464 257.518 2.87372 258.183 2.21163C258.848 1.54953 259.602 1.01662 260.437 0.612902C261.277 0.209183 262.1 0.00732422 262.911 0.00732422H308.996V11.6748H268.466V16.4265H302.054C302.865 16.4265 303.688 16.6284 304.528 17.0321C305.367 17.4358 306.117 17.9688 306.786 18.6309C307.451 19.293 307.986 20.0439 308.392 20.8755C308.797 21.7112 309 22.559 309 23.427V36.4752C309 37.3392 308.797 38.191 308.392 39.0267C307.986 39.8624 307.451 40.6133 306.786 41.2714C306.121 41.9375 305.367 42.4704 304.528 42.8701C303.688 43.2738 302.865 43.4757 302.054 43.4757H251.019V31.8082H296.495V27.0565H262.911Z" fill="#252525"/>
<path d="M12.5004 16.4275V0.00830078H0V43.4767H12.5004V27.0574V16.4275Z" fill="#252525"/>
<path d="M204.067 0.00830078H191.571V27.0574H204.067V0.00830078Z" fill="#252525"/>
<path d="M245.468 0.00830078H232.972V27.0574H245.468V0.00830078Z" fill="#252525"/>
<path d="M191.571 31.8096V36.4766C191.571 37.3405 191.774 38.1924 192.179 39.0281C192.585 39.8638 193.12 40.6147 193.785 41.2727C194.45 41.9389 195.204 42.4718 196.043 42.8715C196.879 43.2752 197.706 43.477 198.517 43.477H245.469V31.8096H191.571Z" fill="#252525"/>
<path d="M50.5495 59.9958H66.0138L32.7455 21.7839L51.6645 0.00732422H36.1271L16.3364 21.7637L50.5495 59.9958Z" fill="#252525"/>
</svg>
